<svg xmlns="http://www.w3.org/2000/svg" viewBox="0 0 512 512"><rect width="512" height="512" rx="112" fill="#ff5b2e"/><path fill="#fff" d="M105 332c0-24 19-43 43-43h22v-34c0-17 14-31 31-31s31 14 31 31v34h48v-34c0-17 14-31 31-31s31 14 31 31v34h22c24 0 43 19 43 43v42c0 17-14 31-31 31H136c-17 0-31-14-31-31v-42zm63-105c-25-4-43-25-43-50 0-29 24-53 53-53s53 24 53 53c0 7-1 13-4 19-13-12-30-19-49-19-4 0-8 0-12 1-3 19 8 37 26 44-9 5-19 7-29 5h-2zm176 0c-10 2-20 0-29-5 18-7 29-25 26-44-4-1-8-1-12-1-19 0-36 7-49 19-3-6-4-12-4-19 0-29 24-53 53-53s53 24 53 53c0 25-18 46-43 50h-2z"/></svg>
